<svg width="42" height="8" viewBox="0 0 42 8" fill="none" xmlns="http://www.w3.org/2000/svg">
<path d="M3.864 6.22C4.408 6.22 4.852 6.176 5.196 6.088C5.052 5.2 4.644 4.54 3.972 4.108C3.9 4.82 3.864 5.524 3.864 6.22ZM0.84 3.4C0.84 2.56 0.916 1.76 1.068 1H7.728C7.368 2.12 6.68 2.932 5.664 3.436C6.584 3.764 7.32 4.22 7.872 4.804C7.8 5.548 7.628 6.28 7.356 7H1.32C1 5.888 0.84 4.688 0.84 3.4ZM4.068 3.28C4.46 3.176 4.824 2.996 5.16 2.74C5.496 2.484 5.736 2.168 5.88 1.792C5.24 1.792 4.72 1.812 4.32 1.852C4.224 2.316 4.14 2.792 4.068 3.28ZM16.6238 6.904V7H13.8398C13.8078 6.544 13.7398 6.072 13.6358 5.584C13.1398 6.088 12.5798 6.56 11.9558 7H9.15975C9.10375 6.672 9.07575 6.24 9.07575 5.704C9.07575 5.16 9.15575 4.616 9.31575 4.072C9.89175 3.904 10.4438 3.62 10.9718 3.22C11.5078 2.82 11.8958 2.388 12.1358 1.924C11.9198 1.588 11.6918 1.28 11.4518 1H15.4358C16.2278 2.72 16.6238 4.688 16.6238 6.904ZM13.4198 4.708C13.2118 3.996 12.9398 3.324 12.6038 2.692C12.2278 3.796 12.0118 4.84 11.9558 5.824C12.5318 5.528 13.0198 5.156 13.4198 4.708ZM24.6036 1C24.6516 1.84 24.6756 2.728 24.6756 3.664C24.6756 4.592 24.6356 5.704 24.5556 7H23.4036C21.8516 6.168 20.4276 5.036 19.1316 3.604C19.1956 4.14 19.2276 4.692 19.2276 5.26C19.2276 5.82 19.2076 6.4 19.1676 7H17.7636C17.9236 6.016 18.0036 5.108 18.0036 4.276C18.0036 3.436 17.9636 2.772 17.8836 2.284C17.5636 1.804 17.3116 1.376 17.1276 1H20.5356C20.8716 1.576 21.3276 2.172 21.9036 2.788C22.4876 3.396 23.0436 3.872 23.5716 4.216C23.5716 3.048 23.4396 1.976 23.1756 1H24.6036ZM32.2697 0.916H32.6657C33.1777 0.916 33.5577 0.856 33.8057 0.736C33.4537 1.256 33.1137 1.708 32.7857 2.092H32.5937C32.1857 2.092 31.7897 2.028 31.4057 1.9C30.8617 2.348 30.4257 2.944 30.0977 3.688C30.9457 3.904 31.8897 4.032 32.9297 4.072C33.1697 4.68 33.3337 5.656 33.4217 7H30.3137C30.1777 6.408 29.9697 5.864 29.6897 5.368C29.4177 4.864 29.1337 4.52 28.8377 4.336C28.7817 4.992 28.7537 5.52 28.7537 5.92C28.7537 6.32 28.7657 6.68 28.7897 7H26.1497C25.9977 5.824 25.9217 4.832 25.9217 4.024C25.9217 3.208 25.9817 2.2 26.1017 1H29.4377C29.1977 1.992 29.0337 2.824 28.9457 3.496C29.3057 2.904 29.6817 2.408 30.0737 2.008C30.4737 1.6 30.9457 1.256 31.4897 0.976C31.6977 0.936 31.9577 0.916 32.2697 0.916ZM35.3901 6.964C34.6781 6.052 34.3221 5.116 34.3221 4.156C34.3221 3.196 34.7221 2.384 35.5221 1.72C36.3221 1.056 37.3461 0.724 38.5941 0.724C39.2581 0.724 39.9181 0.824 40.5741 1.024C41.1501 1.752 41.4381 2.532 41.4381 3.364C41.4381 4.412 41.0101 5.324 40.1541 6.1C39.2981 6.876 38.2621 7.264 37.0461 7.264C36.5261 7.264 35.9741 7.164 35.3901 6.964ZM37.2141 1.768C36.9341 2.248 36.7941 2.812 36.7941 3.46C36.7941 4.108 36.9341 4.708 37.2141 5.26C37.5021 5.804 37.8941 6.196 38.3901 6.436C38.7661 5.956 38.9541 5.4 38.9541 4.768C38.9541 4.136 38.7981 3.548 38.4861 3.004C38.1821 2.46 37.7581 2.048 37.2141 1.768Z" fill="#708090"/>
</svg>
